<?xml version="1.0" standalone="no"?>
<!DOCTYPE svg PUBLIC "-//W3C//DTD SVG 20010904//EN"
 "http://www.w3.org/TR/2001/REC-SVG-20010904/DTD/svg10.dtd">
<svg version="1.0" xmlns="http://www.w3.org/2000/svg"
 width="260.000000pt" height="260.000000pt" viewBox="0 0 260.000000 260.000000"
 preserveAspectRatio="xMidYMid meet">
<metadata>
Created by potrace 1.14, written by Peter Selinger 2001-2017
</metadata>
<g transform="translate(0.000000,260.000000) scale(0.100000,-0.100000)"
fill="#000000" stroke="none">
<path d="M1302 2113 c-41 -20 -71 -62 -79 -108 -5 -29 -36 -65 -195 -221 -123
-120 -187 -189 -181 -195 13 -13 190 23 247 50 33 17 60 45 124 134 76 106
122 160 122 143 0 -14 -23 -51 -85 -137 -70 -98 -90 -155 -82 -232 9 -92 41
-136 96 -137 11 0 11 4 -2 18 -46 51 -62 177 -31 250 8 20 34 62 58 92 24 30
53 71 65 90 21 34 29 90 13 90 -33 0 -114 -59 -217 -159 -109 -105 -187 -162
-202 -147 -3 3 7 16 23 28 16 13 89 79 162 147 131 122 132 124 132 168 0 35
6 49 26 68 60 56 153 38 174 -32 16 -53 1 -105 -56 -188 -58 -84 -74 -123 -74
-177 0 -47 7 -61 31 -70 9 -4 19 -20 22 -36 13 -65 109 -133 237 -167 68 -18
217 -19 290 -2 l56 13 -6 -45 -5 -46 -65 -17 c-85 -22 -257 -23 -358 -2 -42 9
-138 36 -212 61 -224 75 -334 89 -454 58 -67 -18 -156 -54 -156 -65 0 -17 16
-16 88 8 65 22 95 26 192 26 113 0 118 -1 280 -56 232 -79 271 -88 395 -94 85
-4 130 -1 198 14 84 17 87 17 87 0 0 -32 -36 -55 -116 -73 -151 -34 -287 -12
-567 89 -236 85 -412 81 -574 -14 l-32 -19 -7 57 c-12 97 16 230 80 375 9 20
13 37 10 37 -20 0 -85 -120 -110 -206 -26 -85 -26 -279 0 -354 81 -237 229
-391 445 -465 101 -34 204 -47 293 -35 285 36 500 211 595 485 25 72 27 93 27
210 -1 132 -15 204 -42 213 -9 3 -11 -7 -6 -40 l7 -43 -60 76 c-68 85 -139
141 -221 175 -108 45 -231 23 -270 -47 -24 -42 -35 -36 -29 16 3 34 19 68 59
128 56 83 78 132 78 171 0 19 5 21 38 18 26 -3 42 1 51 12 12 14 9 17 -18 22
-31 7 -44 24 -17 24 17 0 48 39 40 52 -3 4 -14 4 -24 -2 -29 -15 -74 -12 -121
10 -53 24 -122 25 -167 3z m390 -461 c74 -37 156 -106 199 -169 37 -53 31 -62
-46 -64 -133 -4 -224 11 -304 49 -121 59 -137 167 -31 211 41 17 115 6 182
-27z m-427 -441 c211 -74 270 -91 352 -100 84 -10 228 2 280 24 20 8 38 14 40
12 2 -2 -2 -18 -8 -35 -15 -42 -75 -62 -209 -69 -130 -6 -196 7 -383 76 -163
60 -285 91 -365 91 -66 0 -191 -32 -241 -61 -18 -11 -34 -19 -35 -17 -8 13
-26 61 -26 68 0 5 16 12 35 16 20 3 68 17 108 30 63 21 87 24 187 21 109 -3
123 -6 265 -56z"/>
<path d="M1319 2024 c-9 -11 -9 -18 -1 -26 14 -14 42 -3 42 16 0 20 -27 27
-41 10z"/>
<path d="M1887 786 c-4 -9 1 -22 9 -31 19 -19 57 -2 52 23 -4 22 -53 28 -61 8z"/>
</g>
</svg>
